<svg xmlns="http://www.w3.org/2000/svg" viewBox="0 0 60 60" fill="#fff"><path d="M57.348 1.793H15.652A2.655 2.655 0 0 0 13 4.446v7.347H2.652A2.655 2.655 0 0 0 0 14.446v43.761l9.414-9.414h34.934A2.654 2.654 0 0 0 47 46.141v-7.348h10.348A2.654 2.654 0 0 0 60 36.141V4.446a2.655 2.655 0 0 0-2.652-2.653zM45 46.141a.653.653 0 0 1-.652.652H8.586L2 53.379V14.446c0-.36.293-.653.652-.653h41.696c.359 0 .652.293.652.653v31.695zm13-10a.653.653 0 0 1-.652.652H47V14.446a2.655 2.655 0 0 0-2.652-2.653H15V4.446c0-.36.293-.653.652-.653h41.695c.36 0 .653.293.653.653v31.695z"/><path d="M10 26.777c-2.206 0-4 1.794-4 4s1.794 4 4 4 4-1.794 4-4-1.794-4-4-4zm0 6c-1.103 0-2-.897-2-2s.897-2 2-2 2 .897 2 2-.897 2-2 2zm13-6c-2.206 0-4 1.794-4 4s1.794 4 4 4 4-1.794 4-4-1.794-4-4-4zm0 6c-1.103 0-2-.897-2-2s.897-2 2-2 2 .897 2 2-.897 2-2 2zm13-6c-2.206 0-4 1.794-4 4s1.794 4 4 4 4-1.794 4-4-1.794-4-4-4zm0 6c-1.103 0-2-.897-2-2s.897-2 2-2 2 .897 2 2-.897 2-2 2z"/></svg>