<svg xmlns="http://www.w3.org/2000/svg" viewBox="0 0 511.999 511.999" fill="#c6ac72"><path d="M363.788 53.894c-34.176 0-61.979 27.803-61.979 61.979a8.083 8.083 0 0 0 8.084 8.084 8.084 8.084 0 0 0 8.084-8.084c0-25.26 20.55-45.81 45.81-45.81s45.81 20.55 45.81 45.81-20.55 45.81-45.81 45.81a8.084 8.084 0 0 0-8.084 8.084v35.929c0 4.465 3.618 8.084 8.084 8.084s8.084-3.62 8.084-8.084v-28.37c30.371-3.973 53.895-30.018 53.895-61.454.001-34.174-27.802-61.978-61.978-61.978z"/><circle cx="363.788" cy="245.22" r="10.779"/><circle cx="105.094" cy="309.894" r="21.558"/><circle cx="169.767" cy="309.894" r="21.558"/><path d="M465.349 46.485C435.542 16.721 395.934.213 353.82.002c-42.211-.179-82.251 16.335-112.657 46.591-11.93 11.872-21.748 25.238-29.284 39.643l-.039-.002h-.041c-56.389.282-109.424 22.386-149.336 62.24C22.556 188.324.373 241.317.005 297.694c-.371 56.728 21.569 110.26 61.777 150.731 40.727 40.997 94.991 63.574 152.796 63.574h179.976c5.319 0 10.002-3.203 11.93-8.161 1.927-4.954.642-10.476-3.276-14.068-5.869-5.382-14.812-13.826-24.088-23.494-8.598-8.964-9.183-22.94-1.358-32.508 30.764-37.62 47.784-85.081 47.995-133.738 14.625-7.595 28.146-17.492 40.101-29.525 30.029-30.226 46.415-70.209 46.138-112.579-.276-42.102-16.843-81.68-46.647-111.441zm-10.961 212.626c-27.356 27.535-63.802 42.699-102.627 42.699H230.759a386.732 386.732 0 0 0 9.893-9.93c11.246-11.723 11.993-30.02 1.738-42.561-16.858-20.615-27.562-45.638-30.994-71.906-.524-4.01-3.958-6.997-8.002-6.997-4.871 0-8.658 4.28-8.025 9.11 3.824 29.234 15.74 57.083 34.505 80.028 5.084 6.218 4.702 15.304-.889 21.133-6.655 6.937-13.082 13.02-17.389 16.974-3.574 3.282-4.982 8.438-3.219 12.958 1.745 4.47 5.97 7.359 10.769 7.359H351.76c20.039 0 39.507-3.64 57.661-10.597-1.794 42.346-17.318 83.309-44.175 116.153-12.995 15.89-12.047 39.077 2.206 53.936 6.67 6.953 13.165 13.285 18.536 18.361H214.577c-53.466 0-103.656-20.883-141.326-58.8-37.151-37.394-57.422-86.84-57.079-139.23.686-104.726 84.483-190.778 188.299-195.205a156.164 156.164 0 0 0-9.062 35.507c-.642 4.826 3.154 9.104 8.023 9.104h.009c4.032 0 7.465-2.97 7.998-6.966 4.115-30.857 18.354-59.527 41.127-82.186 27.163-27.028 62.813-41.886 100.457-41.886l.716.002c77.838.389 141.578 64.028 142.087 141.862.251 38.032-14.466 73.929-41.438 101.078z"/></svg>