<svg xmlns="http://www.w3.org/2000/svg" viewBox="0 0 448 448" fill="#c6ac72"><path d="M304 64h16v112h-16zM256 64h16v112h-16zM400 64h16v112h-16zM336 64h16v112h-16zM192 64h16v112h-16zM0 208v16h32v160h16V224h16v160h16V224h32v96h16v-96h32v96h16v-96h16v96h16v-96h48v96h16v-96h32v96h16v-96h16v96h16v-96h48v160h16V224h32v-16zM32 64h16v112H32zM64 64h16v112H64zM160 64h16v112h-16zM112 64h16v112h-16z"/><path d="M112 352h16v32h-16zM160 352h16v32h-16zM192 352h16v32h-16zM256 352h16v32h-16zM304 352h16v32h-16zM336 352h16v32h-16z"/></svg>