<svg xmlns="http://www.w3.org/2000/svg" width="41" height="41"><path data-name="Иконка copy" d="M41 32.6h-.014a2.8 2.8 0 0 0-.819-1.98 2.557 2.557 0 0 0-.5-.38l-7.889-6.14a2.772 2.772 0 0 0-3.652-.25l-2.2 2.22h-.006a1.858 1.858 0 0 1-2.906-.17c-.012.02-.027.03-.039.05a35.75 35.75 0 0 1-7.951-7.91c.022-.02.041-.03.063-.05a1.866 1.866 0 0 1-.144-2.96l2.19-2.18a2.723 2.723 0 0 0 .572-1.67 2.764 2.764 0 0 0-.819-1.97L10.75 1.32a2.849 2.849 0 0 0-.386-.5A2.772 2.772 0 0 0 8.387 0C4.66 0 .001 4.38.001 9.78a9.73 9.73 0 0 0 .947 4.18l-.031.03a59.143 59.143 0 0 0 26.091 26.09l.03-.03a9.749 9.749 0 0 0 4.179.95c5.4 0 9.784-4.66 9.784-8.39v-.01zm-9.783 6.54a7.832 7.832 0 0 1-3.381-.77 1.223 1.223 0 0 0-.31-.11A57.189 57.189 0 0 1 2.749 13.49a2.171 2.171 0 0 0-.117-.33 7.82 7.82 0 0 1-.767-3.38c0-4.52 3.956-7.92 6.522-7.92a.9.9 0 0 1 .659.28.759.759 0 0 1 .126.17c.034.05.069.1.107.15l6.136 7.89a1.476 1.476 0 0 0 .154.17.939.939 0 0 1 .273.66.884.884 0 0 1-.136.47l-2.076 2.06a.053.053 0 0 1-.028.02 3.728 3.728 0 0 0-.158 5.29c.023.04.047.07.073.11a37.34 37.34 0 0 0 8.366 8.33l.076.06a3.7 3.7 0 0 0 5.187-.04.814.814 0 0 0 .105-.1l2.087-2.1a.884.884 0 0 1 .467-.14.935.935 0 0 1 .658.28c.055.05.112.1.174.15l7.889 6.14c.051.04.1.07.158.11a1.1 1.1 0 0 1 .166.12.918.918 0 0 1 .273.66c0 .06 0 .12.009.19-.146 2.56-3.496 6.35-7.916 6.35z" fill="#c6ac72" fill-rule="evenodd"/></svg>