<svg xmlns="http://www.w3.org/2000/svg" viewBox="0 0 448 448" fill="#c6ac72"><path d="M304 64h16v112h-16zm-48 0h16v112h-16zm144 0h16v112h-16zm-64 0h16v112h-16zm-144 0h16v112h-16zM0 208v16h32v160h16V224h16v160h16V224h32v96h16v-96h32v96h16v-96h16v96h16v-96h48v96h16v-96h32v96h16v-96h16v96h16v-96h48v160h16V224h32v-16zM32 64h16v112H32zm32 0h16v112H64zm96 0h16v112h-16zm-48 0h16v112h-16z"/><path d="M112 352h16v32h-16zm48 0h16v32h-16zm32 0h16v32h-16zm64 0h16v32h-16zm48 0h16v32h-16zm32 0h16v32h-16z"/></svg>