<svg xmlns="http://www.w3.org/2000/svg" width="44" height="32"><path data-name="Иконка copy" d="M40 0H4a4 4 0 0 0-4 4v24a4 4 0 0 0 4 4h36a4 4 0 0 0 4-4V4a4 4 0 0 0-4-4zM4 2h36a2.1 2.1 0 0 1 .667.12L23.355 19.43a1.9 1.9 0 0 1-2.711 0L3.334 2.12A2.09 2.09 0 0 1 4 2zM2 28V4a2.076 2.076 0 0 1 .035-.35L14.382 16 2.035 28.35A2.076 2.076 0 0 1 2 28zm38 2H4a2.09 2.09 0 0 1-.666-.12l12.463-12.47 3.433 3.44a3.91 3.91 0 0 0 5.539 0l3.434-3.44 12.465 12.47A2.113 2.113 0 0 1 40 30zm2-2a2.185 2.185 0 0 1-.035.35L29.617 16 41.965 3.65A2.185 2.185 0 0 1 42 4v24z" fill="#c6ac72" fill-rule="evenodd"/></svg>